<svg xmlns="http://www.w3.org/2000/svg" width="300" height="300" viewBox="0 0 300 300">
  <rect width="300" height="300" fill="white"/>
  <rect x="20" y="20" width="60" height="60" fill="black"/>
  <rect x="30" y="30" width="40" height="40" fill="white"/>
  <rect x="40" y="40" width="20" height="20" fill="black"/>
  
  <rect x="220" y="20" width="60" height="60" fill="black"/>
  <rect x="230" y="30" width="40" height="40" fill="white"/>
  <rect x="240" y="40" width="20" height="20" fill="black"/>
  
  <rect x="20" y="220" width="60" height="60" fill="black"/>
  <rect x="30" y="230" width="40" height="40" fill="white"/>
  <rect x="40" y="240" width="20" height="20" fill="black"/>
  
  <!-- Data pattern -->
  <rect x="100" y="20" width="20" height="20" fill="black"/>
  <rect x="140" y="20" width="20" height="20" fill="black"/>
  <rect x="180" y="20" width="20" height="20" fill="black"/>
  
  <rect x="80" y="60" width="20" height="20" fill="black"/>
  <rect x="120" y="60" width="20" height="20" fill="black"/>
  <rect x="160" y="60" width="20" height="20" fill="black"/>
  <rect x="200" y="60" width="20" height="20" fill="black"/>
  
  <rect x="60" y="100" width="20" height="20" fill="black"/>
  <rect x="100" y="100" width="20" height="20" fill="black"/>
  <rect x="140" y="100" width="20" height="20" fill="black"/>
  <rect x="180" y="100" width="20" height="20" fill="black"/>
  <rect x="220" y="100" width="20" height="20" fill="black"/>
  
  <rect x="80" y="140" width="20" height="20" fill="black"/>
  <rect x="120" y="140" width="20" height="20" fill="black"/>
  <rect x="160" y="140" width="20" height="20" fill="black"/>
  <rect x="200" y="140" width="20" height="20" fill="black"/>
  
  <rect x="60" y="180" width="20" height="20" fill="black"/>
  <rect x="100" y="180" width="20" height="20" fill="black"/>
  <rect x="140" y="180" width="20" height="20" fill="black"/>
  <rect x="180" y="180" width="20" height="20" fill="black"/>
  <rect x="220" y="180" width="20" height="20" fill="black"/>
  
  <rect x="100" y="220" width="20" height="20" fill="black"/>
  <rect x="140" y="220" width="20" height="20" fill="black"/>
  <rect x="180" y="220" width="20" height="20" fill="black"/>
  
  <rect x="260" y="100" width="20" height="20" fill="black"/>
  <rect x="260" y="140" width="20" height="20" fill="black"/>
  
  <rect x="100" y="260" width="20" height="20" fill="black"/>
  <rect x="140" y="260" width="20" height="20" fill="black"/>
  
  <text x="150" y="150" text-anchor="middle" font-family="Arial" font-size="12" fill="#666">UPI QR</text>
</svg>
