<svg xmlns="http://www.w3.org/2000/svg" width="400" height="400" viewBox="0 0 400 400">
  <!-- White background -->
  <rect width="400" height="400" fill="white"/>
  
  <!-- Corner squares -->
  <!-- Top-left corner -->
  <rect x="20" y="20" width="80" height="80" fill="black"/>
  <rect x="35" y="35" width="50" height="50" fill="white"/>
  <rect x="50" y="50" width="20" height="20" fill="black"/>
  
  <!-- Top-right corner -->
  <rect x="300" y="20" width="80" height="80" fill="black"/>
  <rect x="315" y="35" width="50" height="50" fill="white"/>
  <rect x="330" y="50" width="20" height="20" fill="black"/>
  
  <!-- Bottom-left corner -->
  <rect x="20" y="300" width="80" height="80" fill="black"/>
  <rect x="35" y="315" width="50" height="50" fill="white"/>
  <rect x="50" y="330" width="20" height="20" fill="black"/>
  
  <!-- Data pattern -->
  <rect x="120" y="20" width="20" height="20" fill="black"/>
  <rect x="160" y="20" width="20" height="20" fill="black"/>
  <rect x="200" y="20" width="20" height="20" fill="black"/>
  <rect x="240" y="20" width="20" height="20" fill="black"/>
  <rect x="280" y="20" width="20" height="20" fill="black"/>
  
  <rect x="80" y="60" width="20" height="20" fill="black"/>
  <rect x="120" y="60" width="20" height="20" fill="black"/>
  <rect x="160" y="60" width="20" height="20" fill="black"/>
  <rect x="200" y="60" width="20" height="20" fill="black"/>
  <rect x="240" y="60" width="20" height="20" fill="black"/>
  <rect x="280" y="60" width="20" height="20" fill="black"/>
  
  <rect x="40" y="120" width="20" height="20" fill="black"/>
  <rect x="80" y="120" width="20" height="20" fill="black"/>
  <rect x="120" y="120" width="20" height="20" fill="black"/>
  <rect x="160" y="120" width="20" height="20" fill="black"/>
  <rect x="200" y="120" width="20" height="20" fill="black"/>
  <rect x="240" y="120" width="20" height="20" fill="black"/>
  <rect x="280" y="120" width="20" height="20" fill="black"/>
  <rect x="320" y="120" width="20" height="20" fill="black"/>
  
  <rect x="40" y="160" width="20" height="20" fill="black"/>
  <rect x="80" y="160" width="20" height="20" fill="black"/>
  <rect x="120" y="160" width="20" height="20" fill="black"/>
  <rect x="160" y="160" width="20" height="20" fill="black"/>
  <rect x="200" y="160" width="20" height="20" fill="black"/>
  <rect x="240" y="160" width="20" height="20" fill="black"/>
  <rect x="280" y="160" width="20" height="20" fill="black"/>
  <rect x="320" y="160" width="20" height="20" fill="black"/>
  
  <rect x="40" y="200" width="20" height="20" fill="black"/>
  <rect x="80" y="200" width="20" height="20" fill="black"/>
  <rect x="120" y="200" width="20" height="20" fill="black"/>
  <rect x="160" y="200" width="20" height="20" fill="black"/>
  <rect x="200" y="200" width="20" height="20" fill="black"/>
  <rect x="240" y="200" width="20" height="20" fill="black"/>
  <rect x="280" y="200" width="20" height="20" fill="black"/>
  <rect x="320" y="200" width="20" height="20" fill="black"/>
  
  <rect x="40" y="240" width="20" height="20" fill="black"/>
  <rect x="80" y="240" width="20" height="20" fill="black"/>
  <rect x="120" y="240" width="20" height="20" fill="black"/>
  <rect x="160" y="240" width="20" height="20" fill="black"/>
  <rect x="200" y="240" width="20" height="20" fill="black"/>
  <rect x="240" y="240" width="20" height="20" fill="black"/>
  <rect x="280" y="240" width="20" height="20" fill="black"/>
  <rect x="320" y="240" width="20" height="20" fill="black"/>
  
  <rect x="80" y="280" width="20" height="20" fill="black"/>
  <rect x="120" y="280" width="20" height="20" fill="black"/>
  <rect x="160" y="280" width="20" height="20" fill="black"/>
  <rect x="200" y="280" width="20" height="20" fill="black"/>
  <rect x="240" y="280" width="20" height="20" fill="black"/>
  <rect x="280" y="280" width="20" height="20" fill="black"/>
  <rect x="320" y="280" width="20" height="20" fill="black"/>
  
  <rect x="120" y="320" width="20" height="20" fill="black"/>
  <rect x="160" y="320" width="20" height="20" fill="black"/>
  <rect x="200" y="320" width="20" height="20" fill="black"/>
  <rect x="240" y="320" width="20" height="20" fill="black"/>
  <rect x="280" y="320" width="20" height="20" fill="black"/>
  
  <!-- Center text -->
  <text x="200" y="200" text-anchor="middle" font-family="Arial, sans-serif" font-size="16" font-weight="bold" fill="#333">UPI QR</text>
  <text x="200" y="220" text-anchor="middle" font-family="Arial, sans-serif" font-size="12" fill="#666">Scan to Pay</text>
</svg>
